<?xml version="1.0" encoding="utf-8"?>
<!-- Generator: Adobe Illustrator 26.4.1, SVG Export Plug-In . SVG Version: 6.00 Build 0)  -->
<svg version="1.1" id="Layer_1" xmlns="http://www.w3.org/2000/svg" xmlns:xlink="http://www.w3.org/1999/xlink" x="0px" y="0px"
	 viewBox="0 0 64 33" style="enable-background:new 0 0 64 33;" xml:space="preserve">
<style type="text/css">
	.st0{fill-rule:evenodd;clip-rule:evenodd;fill:#112E37;}
	.st1{fill:#112E37;}
</style>
<path class="st0" d="M64,0H0v23l0,0c0,0,1.8,0.1,1.9,0.2c0.5,0,0.5,0.1-0.3,0.1c-0.1,0-0.2,0-0.2,0c-0.1,0-0.2,0.1-0.4,0.3
	C0.8,23.8,0.7,24,0.7,24c0.1,0.1,0.9,0.2,2.3,0.2c0.1,0,0.1,0,0.1,0.1c-0.1,0.2-0.4,0.2-1.2,0.3c-0.4,0-0.9,0.1-1.1,0.2
	C0.5,25,0.2,25,0.1,25H0c0,0,0,0.1,0.1,0.2c0.2,0.3,0.5,1,0.4,1.1c0,0.1,0,0.2,0.2,0.1c0.1,0,0.2-0.1,0.3-0.4
	c0.1-0.4,0.2-0.5,0.5-0.3c0.2,0.1,0.4,0.1,1.7,0.1c1.6,0,1.6,0,1.8,0.4c0.1,0.1,0.1,0.2,0.2,0.1l0.1-0.1c0,0,0-0.1,0.1-0.1V26
	c0-0.1,0.1-0.2,0.1-0.2s0,0,0-0.1c0,0,0,0-0.1,0H5.3c-0.1,0-0.6,0-1.1-0.1c-0.2,0-0.4,0-0.6,0c-0.3,0-0.6,0-0.8,0
	c-0.6,0-0.9,0-1-0.2c0-0.1,0-0.1,0.4-0.2c0.5-0.1,1.3-0.1,2.6,0c0.5,0,0.8,0,1.1-0.1c0.1,0,0.1,0,0.2-0.1c0.1,0,0.1,0,0.2-0.1h0.1
	c0,0,0.2,0,0.3-0.1c0.1,0,0.2-0.1,0.3-0.1c0.1,0,0.1,0,0.2,0h0.1c0,0,0.1,0,0.2,0h0.1c0.2,0,0.4,0,0.7,0c0.2,0,0.5,0,0.7,0
	c1.2,0,1.6,0,2.8,0.1c0.1,0,0.2,0,0.3,0h0.1h0.1c0.5-0.2,1.6,0,2.6,0.5l0.5,0.2l-0.1,0.6l0.4,0.1c0.8,0.1,3.1,0,5-0.4
	c1.7-0.3,1.8-0.3,2.1-0.2c0.2,0.1,0.8,0.2,1.3,0.4c0.2,0.1,0.4,0.1,0.6,0.2c0.3,0.1,0.5,0.1,0.6,0.2l0.2,0.1l-0.2,0.2
	c-0.1,0.1-0.2,0.2-0.2,0.2s0.1,0.1,0.3,0.1c0.2,0,0.4,0.2,0.6,0.3c0.3,0.2,0.3,0.3,0.6,0.2c0.2,0,0.3,0,0.4,0c0,0,0,0,0.1,0l0,0l0,0
	c0.1,0.1,0.3,0.1,0.8,0.2c0.3,0,0.6,0.1,0.7,0.1c0.3,0.1,0.1,0.2-0.3,0.3l-0.4,0.1l0.3,0.1c0.1,0,0.2,0,0.2,0c0.1,0,0.2,0,0.3,0
	c0.2-0.1,0.2-0.1,0.2-0.3c0-0.5,0-0.5,0.7-0.6s1.2-0.1,3.4-0.1c0.8,0,1.8,0,2.1-0.1c0.4,0,1.3-0.1,2.2-0.2c1.7-0.1,2.8-0.2,3.5-0.4
	c0.4-0.1,0.4-0.2,0.3-0.2c-0.2-0.2-0.4-0.5-0.4-0.7l0,0l0,0c0.1,0,0.2-0.1,0.2-0.2l0,0l0,0c0.2-0.2,0.3-0.2,0.3-0.2s0.1,0,0.2,0.1
	l0,0c0.3,0.3,0.6,0.2,1.4-0.4c0.1-0.1,0.2-0.2,0.3-0.2c0.1-0.1,0.2-0.2,0.3-0.2c0.1-0.1,0.2-0.1,0.3,0s0.5,0.1,0.8,0.1
	c0.8,0,1,0.2,0.8,0.6c-0.1,0.2-0.1,0.3,0.1,0.3c0.2,0,0.4,0,0.5-0.2l0,0c0.1-0.1,0.2-0.3,0.3-0.3c0,0,0,0,0.1,0.1s0.1,0.2,0.2,0.3
	c0.4,0.5,0.5,0.5,3.5,1l0.8,0.2l0,0h0.1l0.6,0.1l0.4,0.1c0.1,0,0.2,0,0.2,0s0.1-0.1,0.1-0.2s-0.1-0.3-0.3-0.5s-0.3-0.4-0.3-0.4
	s0.8-0.2,1.7-0.3c2.3-0.3,3-0.3,2.3,0.2l-0.3,0.2l0.9,0.2c0.7,0.2,0.9,0.3,1,0.4c0.1,0.2,0,0.2-0.2,0.3c-0.1,0.1-0.3,0.2-0.3,0.3
	c-0.1,0.2,0.2,0.4,0.4,0.2c0.2-0.2,0.9-0.3,1.8-0.3c0.4,0,0.7-0.1,0.7-0.1c0.1-0.1-0.6-0.3-1.1-0.2c-0.6,0.1-0.9,0-0.8-0.3
	c0.1-0.1,0.3-0.2,1-0.2c0.6,0,1-0.1,1.3-0.2c0.2-0.1,0.7-0.2,1.1-0.2c0.9,0,1-0.1,0.5-0.3c-0.3-0.1-0.6-0.2-0.6-0.3
	c-0.1-0.1-0.2-0.1-0.3,0.1c0,0.1-0.1,0.1-0.1,0.2c-0.1,0-0.2,0-0.6-0.2c-0.7-0.4-0.8-0.6-0.2-0.7c0.8-0.1,1.1,0,1.6,0.3
	c0.2,0.1,0.3,0.2,0.4,0.2c0.2,0.1,0.4,0.1,0.7,0.2c0.2,0,0.3,0,0.4,0.1c0.1,0,0.1,0,0.2,0l0,0l0,0l0,0c0,0-0.2,0.2-0.4,0.4
	c-0.4,0.4-0.5,0.5-0.4,0.8c0,0.4,0.1,0.4,0.7,0.4c0.4,0,0.7-0.1,0.8-0.1c0.1-0.1,0-0.3-0.1-0.5c-0.1-0.3-0.2-0.4,0-0.6
	c0.2-0.3,0.1-1.6,0-1.6h-0.1l-0.1,0.1c-0.3,0.3-0.5,0.1-0.4-0.2c0.1-0.2,0.1-0.3,0-0.4c0,0-0.1,0-0.2,0c-0.1,0-0.1,0-0.2,0
	c-0.1,0-0.3,0-0.4,0.1c-0.7,0.2-1.7,0.3-2.4,0.2c-0.3,0-0.4-0.1-0.3-0.2c0.1-0.3,0.4-0.4,1.2-0.4c0.1,0,0.3,0,0.4,0
	c0.3,0,0.5-0.1,0.7-0.2c0.5-0.2,0.5-0.2,1.3,0c0.3,0.1,0.5,0.1,0.6,0.2c0.2,0,0.3,0,0.3-0.1s0-0.2,0-0.4L64,0L64,0z M10.9,23h-0.7
	v0.1l0,0l0,0c0,0,0,0,0.1,0c0,0,0.1,0,0.2,0h0.1C10.8,23.2,10.8,23.2,10.9,23z M62.4,24.8c0.2-0.1,0.3-0.1,0.4,0
	c0.1,0.2,0.1,0.2-0.1,0.2c-0.1,0-0.3,0-0.4,0c-0.1,0-0.1-0.1-0.1-0.1C62.2,24.9,62.2,24.9,62.4,24.8z M28.4,27.4
	c0,0-0.1,0.1-0.2,0.1s-0.1,0-0.1,0s0,0,0-0.1l0.1-0.1C28.3,27.3,28.4,27.3,28.4,27.4C28.4,27.3,28.4,27.3,28.4,27.4
	C28.4,27.3,28.4,27.3,28.4,27.4L28.4,27.4L28.4,27.4L28.4,27.4z M27.5,27.3c0.1,0,0.1,0,0.2-0.1c0-0.1,0-0.1,0-0.1s-0.1,0-0.1,0.1
	C27.4,27.2,27.4,27.2,27.5,27.3C27.4,27.3,27.5,27.3,27.5,27.3z M11.9,24.6C11.8,24.6,11.8,24.6,11.9,24.6c-0.1-0.1-0.1-0.2-0.1-0.3
	c0,0,0.1-0.1,0.2-0.1c0.1,0,0.1,0,0.1,0.2C11.9,24.5,11.9,24.6,11.9,24.6L11.9,24.6z M6.7,23.4c0.4,0.1,0.7,0,1-0.2v-0.1
	c-0.1,0-0.2,0-0.5,0C6.3,23.2,6.1,23.3,6.7,23.4z M2.5,23.8C2.4,23.8,2.4,23.8,2.5,23.8c-0.1,0-0.2,0-0.2,0l0,0l0,0v-0.1
	c0,0,0.1,0,0.2,0l0,0l0,0c0,0,0,0,0.1,0h0.2L2.5,23.8L2.5,23.8z M5.6,23.4c0,0,0.2,0,0.3,0c0.1,0,0.2-0.1,0.2-0.1c0-0.1,0-0.1-0.3,0
	C5.7,23.3,5.5,23.4,5.6,23.4z M6.6,24.3L6.6,24.3H6.4H6.1l0.2-0.1c0.3-0.2,0.6-0.2,0.6,0c0,0.1-0.1,0.1-0.1,0.1
	C6.8,24.3,6.7,24.3,6.6,24.3L6.6,24.3z"/>
<path class="st1" d="M3.1,26.5L3.1,26.5c-0.2,0-0.3,0-0.4,0c-0.3,0-0.5,0-0.6,0c-0.3,0.1-0.5,0.2-0.3,0.3C2,27,2.1,27,4.9,26.8H5
	v-0.1c-0.1-0.1-0.2-0.1-1.3-0.1H3.4L3.1,26.5z"/>
<path class="st1" d="M7.8,26c0.6,0,1.2,0,1.3,0c0.2,0.1,0.7,0.5,0.7,0.5c-0.1,0.1-0.5,0-0.6-0.2c-0.1-0.1-0.3,0-0.8,0.1
	c-0.7,0.2-0.7,0.2-0.7,0c0-0.1-0.1-0.1-0.1-0.1s-0.1,0-0.1,0.1l-0.2,0.1L7,26.3c-0.1-0.1-0.2-0.2-0.2-0.3C6.7,26,7.2,26,7.8,26z"/>
<path class="st1" d="M10.3,26.4c0.2-0.1,0.3-0.1,0.1-0.1s-0.6,0.2-0.4,0.2C10,26.5,10.2,26.4,10.3,26.4z"/>
<path class="st1" d="M12.2,26.4C12.3,26.4,12.3,26.4,12.2,26.4c0,0.1,0,0.1,0,0.1S12.2,26.5,12.2,26.4
	C12.1,26.5,12.1,26.5,12.2,26.4L12.2,26.4z"/>
<path class="st1" d="M15.3,26.9C15.3,26.9,15.4,27,15.3,26.9V27l0,0l0,0c-0.1,0-0.3-0.2-0.3-0.3C15.1,26.6,15.2,26.6,15.3,26.9
	L15.3,26.9z"/>
<path class="st1" d="M24.3,26.8c0.1,0,0.2,0.1,0.3,0.1l0.2,0.2L24.5,27C24.2,26.9,24.1,26.8,24.3,26.8z"/>
<path class="st1" d="M26.6,28.4c-0.2-0.2-0.4-0.2-0.8-0.2c-0.1,0-0.2,0-0.3,0.1h-0.1c0,0,0.2,0.1,0.4,0.1c0.2,0,0.4,0.1,0.5,0.1h0.1
	c0.1,0,0.1,0,0.2,0s0.1,0,0.1-0.1C26.6,28.5,26.6,28.4,26.6,28.4z"/>
<path class="st1" d="M30.3,27.8c0.3,0,0.6,0,0.6,0c0.1,0.1-0.5,0.4-0.8,0.5c-0.2,0-0.3,0.1-0.4,0l0,0v-0.1
	C29.6,27.9,29.7,27.8,30.3,27.8z"/>
</svg>
